<svg width="128" height="64" xmlns="http://www.w3.org/2000/svg">
  <path d="M 87,12 L 86,13 L 85,14 L 84,14 L 83,15 L 82,15 L 81,16 L 81,17 L 80,18 L 79,19 L 78,20 L 77,20 L 76,21 L 75,22 L 75,23 L 74,24 L 73,25 L 72,26 L 72,27 L 72,28 L 72,29 L 72,30 L 72,31 L 72,32 L 72,33 L 72,34 L 72,35 L 72,36 L 72,37 L 72,38 L 72,39 L 72,40 L 72,41 L 73,42 L 74,43 L 75,43 L 76,43 L 77,44 L 78,44 L 79,44 L 80,44 L 81,44 L 82,44 L 83,44 L 84,44 L 85,44 L 86,44 L 87,44 L 88,44 L 89,44 L 90,44 L 91,44 L 92,44 L 93,44 L 94,44 L 95,44 L 96,44 L 97,44 L 98,45 L 99,45 L 100,45 L 101,45 L 102,45 L 103,44 L 104,43 L 105,42 L 106,42 L 107,41 L 108,40 L 109,39 L 110,38 L 110,37 L 111,36 L 112,36 L 113,35 L 114,34 L 114,33 L 114,32 L 114,31 L 114,30 L 114,29 L 114,28 L 115,27 L 115,26 L 115,25 L 115,24 L 115,23 L 115,22 L 115,21 L 115,20 L 115,19 L 115,18 L 115,17 L 114,16 L 113,16 L 112,16 L 111,15 L 111,14 L 110,14 L 109,14 L 108,13 L 107,13 L 106,13 L 105,13 L 104,13 L 103,13 L 102,13 L 101,12 L 100,12 L 99,12 L 98,12 L 97,12 L 96,12 L 95,12 L 94,12 L 93,12 L 92,12 L 91,12 L 90,12 L 89,12 L 88,12 Z" fill="black" stroke="none" />
  <path d="M 26,12 L 25,13 L 24,13 L 23,13 L 22,13 L 21,13 L 20,13 L 19,13 L 18,14 L 17,14 L 16,14 L 16,15 L 15,16 L 14,16 L 13,16 L 12,17 L 12,18 L 12,19 L 12,20 L 12,21 L 12,22 L 12,23 L 12,24 L 12,25 L 12,26 L 12,27 L 13,28 L 13,29 L 13,30 L 13,31 L 13,32 L 13,33 L 13,34 L 14,35 L 14,36 L 15,37 L 16,38 L 17,39 L 17,40 L 18,40 L 19,41 L 20,42 L 20,43 L 21,44 L 22,45 L 23,45 L 24,45 L 25,45 L 26,45 L 27,45 L 28,45 L 29,45 L 30,44 L 31,44 L 32,44 L 33,44 L 34,44 L 35,44 L 36,44 L 37,44 L 38,44 L 39,44 L 40,44 L 41,44 L 42,44 L 43,44 L 44,44 L 45,44 L 46,44 L 47,44 L 48,44 L 49,44 L 50,44 L 51,43 L 52,43 L 53,43 L 54,42 L 55,41 L 55,40 L 55,39 L 55,38 L 55,37 L 55,36 L 55,35 L 55,34 L 55,33 L 55,32 L 55,31 L 55,30 L 55,29 L 55,28 L 54,27 L 54,26 L 53,25 L 53,24 L 52,23 L 51,22 L 51,21 L 50,20 L 49,19 L 48,18 L 47,17 L 46,16 L 45,15 L 44,15 L 43,14 L 42,13 L 41,13 L 40,12 L 39,12 L 38,12 L 37,12 L 36,12 L 35,12 L 34,12 L 33,12 L 32,12 L 31,12 L 30,12 L 29,12 L 28,12 L 27,12 Z" fill="black" stroke="none" />
</svg>